<svg aria-hidden="true" style="position: absolute; width: 0; height: 0; overflow: hidden;" version="1.1" xmlns="http://www.w3.org/2000/svg" xmlns:xlink="http://www.w3.org/1999/xlink">
<defs>
<symbol id="icon-location" viewBox="0 0 40 40">
<title>location</title>
<path d="M38.734 36.204l-2.734-8.204h-3l1.666 8h-29.332l1.666-8h-3l-2.736 8.204c-0.694 2.088 0.536 3.796 2.736 3.796h32c2.2 0 3.43-1.708 2.734-3.796zM30 10c0-5.522-4.476-10-10-10s-10 4.478-10 10c0 9.55 10 20 10 20s10-10.45 10-20zM14.6 10.12c0-2.982 2.416-5.398 5.4-5.398s5.4 2.416 5.4 5.398c0 2.984-2.418 5.4-5.4 5.4s-5.4-2.418-5.4-5.4z"></path>
</symbol>
<symbol id="icon-mic" viewBox="0 0 40 40">
<title>mic</title>
<path d="M32.798 15.286v5.514c0 4.472-3.286 9.258-10.798 9.918v5.282h5.2c0.44 0 0.8 0.36 0.8 0.8v2.4c0 0.442-0.362 0.8-0.8 0.8h-14.4c-0.44 0-0.8-0.36-0.8-0.8v-2.4c0-0.44 0.36-0.8 0.798-0.8h5.202v-5.282c-7.516-0.66-10.8-5.446-10.8-9.918v-5.514c0-0.442 0.36-0.8 0.8-0.8h1.2c0.44 0 0.8 0.36 0.8 0.8v5.514c0 2.672 2.106 7.2 10 7.2 7.892 0 10-4.528 10-7.2v-5.514c0-0.442 0.36-0.8 0.798-0.8h1.202c0.44-0.002 0.798 0.358 0.798 0.8zM20 24c4.692 0 6-1.93 6-3.2v-6.316h-12v6.316c0 1.27 1.304 3.2 6 3.2zM26 3.2c0-1.274-1.308-3.2-6-3.2-4.696 0-6 1.926-6 3.2v8.484h12v-8.484z"></path>
</symbol>
<symbol id="icon-stopwatch" viewBox="0 0 40 40">
<title>stopwatch</title>
<path d="M14.752 13.49c-0.894 0.55 2.394 8.484 3.196 9.776 0.7 1.138 2.186 1.484 3.316 0.788 1.136-0.704 1.49-2.188 0.79-3.32-0.794-1.296-6.41-7.796-7.302-7.244zM14.082 4.804c1.856-0.646 3.844-1.004 5.918-1.004s4.062 0.358 5.918 1.004c0.658 0.228 1.53-0.23 1.144-1.222-0.282-0.72-0.554-1.424-0.664-1.71-0.262-0.678-1.2-1.238-1.608-1.33-1.544-0.348-3.144-0.542-4.79-0.542s-3.246 0.194-4.792 0.542c-0.408 0.092-1.344 0.652-1.606 1.33-0.11 0.286-0.384 0.99-0.664 1.71-0.386 0.992 0.486 1.452 1.144 1.222zM38.196 6.372c-0.384-0.46-0.792-0.91-1.226-1.344-0.432-0.434-0.882-0.84-1.34-1.226-0.306-0.258-1.206-0.468-1.776 0.102-0.568 0.57-3.296 3.294-3.296 3.294 0.804 0.576 1.586 1.21 2.31 1.932s1.354 1.504 1.932 2.31c0 0 2.726-2.724 3.294-3.294 0.572-0.572 0.362-1.47 0.102-1.774zM20 5.8c-8.95 0-16.202 7.252-16.202 16.2 0 8.95 7.252 16.202 16.202 16.202 8.946 0 16.2-7.252 16.2-16.202 0-8.946-7.254-16.2-16.2-16.2zM20 34.202c-6.736 0-12.2-5.462-12.2-12.2s5.462-12.2 12.2-12.2c6.738 0 12.202 5.462 12.202 12.2 0 6.736-5.464 12.2-12.202 12.2z"></path>
</symbol>
<symbol id="icon-users" viewBox="0 0 40 40">
<title>users</title>
<path d="M31.978 38.258c0-4.492-4.374-6.778-8.634-8.614-4.246-1.828-5.602-3.368-5.602-6.668 0-1.978 1.296-1.334 1.864-4.962 0.24-1.504 1.384-0.024 1.604-3.458 0-1.368-0.626-1.708-0.626-1.708s0.318-2.026 0.442-3.586c0.128-1.634-0.796-5.12-4.602-6.19-0.664-0.682-1.114-1.764 0.934-2.848-4.48-0.208-5.522 2.136-7.908 3.86-2.030 1.512-2.578 3.906-2.48 5.18 0.13 1.56 0.446 3.586 0.446 3.586s-0.628 0.34-0.628 1.708c0.22 3.436 1.368 1.954 1.606 3.458 0.568 3.628 1.866 2.984 1.866 4.962 0 3.3-0.424 4.42-4.672 6.248-4.262 1.834-5.588 4.774-5.566 9.032 0.006 1.274-0.022 1.742-0.022 1.742h32c0 0-0.022-0.468-0.022-1.742zM37.056 26.73c-2.27-0.914-3.21-2.004-3.21-4.132 0-1.282 0.836-0.864 1.204-3.206 0.154-0.968 0.894-0.016 1.036-2.23 0-0.882-0.404-1.102-0.404-1.102s0.206-1.312 0.286-2.318c0.1-1.254-0.728-4.494-4.536-4.494-3.806 0-4.636 3.24-4.538 4.494 0.084 1.004 0.288 2.318 0.288 2.318s-0.404 0.218-0.404 1.102c0.142 2.214 0.882 1.262 1.036 2.23 0.368 2.344 1.204 1.926 1.204 3.206 0 2.128-0.876 3.124-3.618 4.304-0.138 0.058-0.24 0.136-0.366 0.204 3.28 1.424 8.452 3.882 9.676 8.894h5.29c0 0 0-3.812 0-4.636 0-2-0.546-3.668-2.944-4.634z"></path>
</symbol>
<symbol id="icon-facebook-with-circle" viewBox="0 0 40 40">
<title>facebook-with-circle</title>
<path d="M20 0.8c-10.604 0-19.2 8.596-19.2 19.2s8.596 19.2 19.2 19.2 19.2-8.596 19.2-19.2-8.596-19.2-19.2-19.2zM24.548 14.068h-2.886c-0.342 0-0.722 0.45-0.722 1.048v2.084h3.61l-0.546 2.972h-3.064v8.922h-3.406v-8.922h-3.090v-2.972h3.090v-1.748c0-2.508 1.74-4.546 4.128-4.546h2.886v3.162z"></path>
</symbol>
<symbol id="icon-google-with-circle" viewBox="0 0 40 40">
<title>google-with-circle</title>
<path d="M20 0.8c-10.604 0-19.2 8.596-19.2 19.2s8.596 19.2 19.2 19.2 19.2-8.596 19.2-19.2-8.596-19.2-19.2-19.2zM18.894 28.242c-1.206 0.586-2.504 0.648-3.006 0.648-0.096 0-0.15 0-0.15 0s-0.046 0-0.108 0c-0.784 0-4.686-0.18-4.686-3.734 0-3.492 4.25-3.766 5.552-3.766h0.034c-0.752-1.004-0.596-2.016-0.596-2.016-0.066 0.004-0.162 0.008-0.28 0.008-0.49 0-1.436-0.078-2.248-0.602-0.996-0.64-1.5-1.73-1.5-3.238 0-4.262 4.654-4.434 4.7-4.438h4.648v0.102c0 0.52-0.934 0.622-1.57 0.708-0.216 0.032-0.65 0.074-0.772 0.136 1.178 0.63 1.368 1.618 1.368 3.090 0 1.676-0.656 2.562-1.352 3.184-0.432 0.386-0.77 0.688-0.77 1.094 0 0.398 0.464 0.804 1.004 1.278 0.882 0.778 2.092 1.836 2.092 3.622 0 1.846-0.794 3.166-2.36 3.924zM29 20h-3v3h-2v-3h-3v-2h3v-3h2v3h3v2zM16.446 22.3c-0.104 0-0.208 0.004-0.314 0.012-0.888 0.066-1.708 0.398-2.3 0.938-0.588 0.532-0.888 1.204-0.846 1.882 0.090 1.422 1.616 2.254 3.47 2.122 1.824-0.132 3.040-1.184 2.952-2.606-0.084-1.336-1.246-2.348-2.962-2.348zM18.194 14.57c-0.484-1.7-1.264-2.204-2.476-2.204-0.13 0-0.262 0.020-0.388 0.054-0.526 0.15-0.944 0.588-1.176 1.24-0.238 0.66-0.252 1.348-0.048 2.132 0.37 1.402 1.366 2.418 2.37 2.418 0.132 0 0.264-0.016 0.388-0.054 1.098-0.308 1.786-1.984 1.33-3.586z"></path>
</symbol>
<symbol id="icon-linkedin-with-circle" viewBox="0 0 40 40">
<title>linkedin-with-circle</title>
<path d="M20 0.8c-10.604 0-19.2 8.596-19.2 19.2s8.596 19.2 19.2 19.2 19.2-8.596 19.2-19.2-8.596-19.2-19.2-19.2zM15.3 27.958h-3.888v-12.512h3.888v12.512zM13.332 13.91c-1.228 0-2.022-0.87-2.022-1.946 0-1.098 0.818-1.942 2.072-1.942s2.022 0.844 2.046 1.942c0 1.076-0.792 1.946-2.096 1.946zM29.5 27.958h-3.888v-6.934c0-1.614-0.564-2.71-1.97-2.71-1.074 0-1.712 0.742-1.994 1.456-0.104 0.254-0.13 0.614-0.13 0.972v7.214h-3.89v-8.52c0-1.562-0.050-2.868-0.102-3.992h3.378l0.178 1.738h0.078c0.512-0.816 1.766-2.020 3.864-2.020 2.558 0 4.476 1.714 4.476 5.398v7.398z"></path>
</symbol>
<symbol id="icon-twitter-with-circle" viewBox="0 0 40 40">
<title>twitter-with-circle</title>
<path d="M20 0.8c-10.604 0-19.2 8.596-19.2 19.2s8.596 19.2 19.2 19.2 19.2-8.596 19.2-19.2-8.596-19.2-19.2-19.2zM27.81 16.528c0.008 0.164 0.010 0.328 0.010 0.488 0 5-3.802 10.762-10.758 10.762-2.136 0-4.124-0.624-5.796-1.7 0.294 0.036 0.596 0.050 0.902 0.050 1.772 0 3.402-0.602 4.696-1.618-1.654-0.032-3.050-1.124-3.532-2.624 0.23 0.042 0.466 0.066 0.71 0.066 0.344 0 0.68-0.046 0.996-0.132-1.73-0.348-3.034-1.876-3.034-3.708v-0.046c0.51 0.282 1.094 0.454 1.714 0.474-1.016-0.68-1.682-1.836-1.682-3.15 0-0.692 0.186-1.344 0.512-1.902 1.866 2.288 4.65 3.792 7.794 3.954-0.066-0.278-0.098-0.566-0.098-0.864 0-2.086 1.692-3.782 3.782-3.782 1.086 0 2.070 0.46 2.76 1.196 0.862-0.172 1.67-0.484 2.4-0.918-0.282 0.882-0.88 1.624-1.662 2.094 0.766-0.094 1.494-0.296 2.172-0.598-0.506 0.758-1.148 1.426-1.886 1.958z"></path>
</symbol>
<symbol id="icon-circle-right" viewBox="0 0 32 32">
<title>circle-right</title>
<path d="M16 0c-8.837 0-16 7.163-16 16s7.163 16 16 16 16-7.163 16-16-7.163-16-16-16zM16 29c-7.18 0-13-5.82-13-13s5.82-13 13-13 13 5.82 13 13-5.82 13-13 13z"></path>
<path d="M11.086 22.086l2.829 2.829 8.914-8.914-8.914-8.914-2.828 2.828 6.086 6.086z"></path>
</symbol>
</defs>
</svg>
