<svg aria-hidden="true" style="position: absolute; width: 0; height: 0; overflow: hidden;" version="1.1" xmlns="http://www.w3.org/2000/svg" xmlns:xlink="http://www.w3.org/1999/xlink">
<defs>
<symbol id="icon-location" viewBox="0 0 40 40">
<title>location</title>
<path d="M38.734 36.204l-2.734-8.204h-3l1.666 8h-29.332l1.666-8h-3l-2.736 8.204c-0.694 2.088 0.536 3.796 2.736 3.796h32c2.2 0 3.43-1.708 2.734-3.796zM30 10c0-5.522-4.476-10-10-10s-10 4.478-10 10c0 9.55 10 20 10 20s10-10.45 10-20zM14.6 10.12c0-2.982 2.416-5.398 5.4-5.398s5.4 2.416 5.4 5.398c0 2.984-2.418 5.4-5.4 5.4s-5.4-2.418-5.4-5.4z"></path>
</symbol>
<symbol id="icon-mic" viewBox="0 0 40 40">
<title>mic</title>
<path d="M32.798 15.286v5.514c0 4.472-3.286 9.258-10.798 9.918v5.282h5.2c0.44 0 0.8 0.36 0.8 0.8v2.4c0 0.442-0.362 0.8-0.8 0.8h-14.4c-0.44 0-0.8-0.36-0.8-0.8v-2.4c0-0.44 0.36-0.8 0.798-0.8h5.202v-5.282c-7.516-0.66-10.8-5.446-10.8-9.918v-5.514c0-0.442 0.36-0.8 0.8-0.8h1.2c0.44 0 0.8 0.36 0.8 0.8v5.514c0 2.672 2.106 7.2 10 7.2 7.892 0 10-4.528 10-7.2v-5.514c0-0.442 0.36-0.8 0.798-0.8h1.202c0.44-0.002 0.798 0.358 0.798 0.8zM20 24c4.692 0 6-1.93 6-3.2v-6.316h-12v6.316c0 1.27 1.304 3.2 6 3.2zM26 3.2c0-1.274-1.308-3.2-6-3.2-4.696 0-6 1.926-6 3.2v8.484h12v-8.484z"></path>
</symbol>
<symbol id="icon-stopwatch" viewBox="0 0 40 40">
<title>stopwatch</title>
<path d="M14.752 13.49c-0.894 0.55 2.394 8.484 3.196 9.776 0.7 1.138 2.186 1.484 3.316 0.788 1.136-0.704 1.49-2.188 0.79-3.32-0.794-1.296-6.41-7.796-7.302-7.244zM14.082 4.804c1.856-0.646 3.844-1.004 5.918-1.004s4.062 0.358 5.918 1.004c0.658 0.228 1.53-0.23 1.144-1.222-0.282-0.72-0.554-1.424-0.664-1.71-0.262-0.678-1.2-1.238-1.608-1.33-1.544-0.348-3.144-0.542-4.79-0.542s-3.246 0.194-4.792 0.542c-0.408 0.092-1.344 0.652-1.606 1.33-0.11 0.286-0.384 0.99-0.664 1.71-0.386 0.992 0.486 1.452 1.144 1.222zM38.196 6.372c-0.384-0.46-0.792-0.91-1.226-1.344-0.432-0.434-0.882-0.84-1.34-1.226-0.306-0.258-1.206-0.468-1.776 0.102-0.568 0.57-3.296 3.294-3.296 3.294 0.804 0.576 1.586 1.21 2.31 1.932s1.354 1.504 1.932 2.31c0 0 2.726-2.724 3.294-3.294 0.572-0.572 0.362-1.47 0.102-1.774zM20 5.8c-8.95 0-16.202 7.252-16.202 16.2 0 8.95 7.252 16.202 16.202 16.202 8.946 0 16.2-7.252 16.2-16.202 0-8.946-7.254-16.2-16.2-16.2zM20 34.202c-6.736 0-12.2-5.462-12.2-12.2s5.462-12.2 12.2-12.2c6.738 0 12.202 5.462 12.202 12.2 0 6.736-5.464 12.2-12.202 12.2z"></path>
</symbol>
<symbol id="icon-users" viewBox="0 0 40 40">
<title>users</title>
<path d="M31.978 38.258c0-4.492-4.374-6.778-8.634-8.614-4.246-1.828-5.602-3.368-5.602-6.668 0-1.978 1.296-1.334 1.864-4.962 0.24-1.504 1.384-0.024 1.604-3.458 0-1.368-0.626-1.708-0.626-1.708s0.318-2.026 0.442-3.586c0.128-1.634-0.796-5.12-4.602-6.19-0.664-0.682-1.114-1.764 0.934-2.848-4.48-0.208-5.522 2.136-7.908 3.86-2.030 1.512-2.578 3.906-2.48 5.18 0.13 1.56 0.446 3.586 0.446 3.586s-0.628 0.34-0.628 1.708c0.22 3.436 1.368 1.954 1.606 3.458 0.568 3.628 1.866 2.984 1.866 4.962 0 3.3-0.424 4.42-4.672 6.248-4.262 1.834-5.588 4.774-5.566 9.032 0.006 1.274-0.022 1.742-0.022 1.742h32c0 0-0.022-0.468-0.022-1.742zM37.056 26.73c-2.27-0.914-3.21-2.004-3.21-4.132 0-1.282 0.836-0.864 1.204-3.206 0.154-0.968 0.894-0.016 1.036-2.23 0-0.882-0.404-1.102-0.404-1.102s0.206-1.312 0.286-2.318c0.1-1.254-0.728-4.494-4.536-4.494-3.806 0-4.636 3.24-4.538 4.494 0.084 1.004 0.288 2.318 0.288 2.318s-0.404 0.218-0.404 1.102c0.142 2.214 0.882 1.262 1.036 2.23 0.368 2.344 1.204 1.926 1.204 3.206 0 2.128-0.876 3.124-3.618 4.304-0.138 0.058-0.24 0.136-0.366 0.204 3.28 1.424 8.452 3.882 9.676 8.894h5.29c0 0 0-3.812 0-4.636 0-2-0.546-3.668-2.944-4.634z"></path>
</symbol>
<symbol id="icon-linkedin" viewBox="0 0 40 40">
<title>linkedin</title>
<path d="M10 6c0 2.124-1.42 3.952-4.002 3.952-2.43 0-3.998-1.724-3.998-3.848 0-2.18 1.52-4.104 4-4.104s3.952 1.82 4 4zM2 38v-26h8v26h-8z"></path>
<path d="M14 20.888c0-3.090-0.102-5.672-0.204-7.902h7.188l0.356 3.446h0.152c1.012-1.622 3.492-4 7.644-4 5.064 0 8.864 3.39 8.864 10.684v14.884h-8v-13.722c0-3.188-1.214-5.62-4-5.62-2.124 0-3.188 1.72-3.746 3.138-0.204 0.508-0.254 1.216-0.254 1.926v14.278h-8v-17.112z"></path>
</symbol>
<symbol id="icon-circle-right" viewBox="0 0 32 32">
<title>circle-right</title>
<path d="M16 0c-8.837 0-16 7.163-16 16s7.163 16 16 16 16-7.163 16-16-7.163-16-16-16zM16 29c-7.18 0-13-5.82-13-13s5.82-13 13-13 13 5.82 13 13-5.82 13-13 13z"></path>
<path d="M11.086 22.086l2.829 2.829 8.914-8.914-8.914-8.914-2.828 2.828 6.086 6.086z"></path>
</symbol>
<symbol id="icon-google" viewBox="0 0 32 32">
<title>google</title>
<path d="M16.319 13.713v5.487h9.075c-0.369 2.356-2.744 6.9-9.075 6.9-5.463 0-9.919-4.525-9.919-10.1s4.456-10.1 9.919-10.1c3.106 0 5.188 1.325 6.375 2.469l4.344-4.181c-2.788-2.612-6.4-4.188-10.719-4.188-8.844 0-16 7.156-16 16s7.156 16 16 16c9.231 0 15.363-6.494 15.363-15.631 0-1.050-0.113-1.85-0.25-2.65l-15.113-0.006z"></path>
</symbol>
<symbol id="icon-facebook" viewBox="0 0 32 32">
<title>facebook</title>
<path d="M19 6h5v-6h-5c-3.86 0-7 3.14-7 7v3h-4v6h4v16h6v-16h5l1-6h-6v-3c0-0.542 0.458-1 1-1z"></path>
</symbol>
<symbol id="icon-twitter" viewBox="0 0 32 32">
<title>twitter</title>
<path d="M32 7.075c-1.175 0.525-2.444 0.875-3.769 1.031 1.356-0.813 2.394-2.1 2.887-3.631-1.269 0.75-2.675 1.3-4.169 1.594-1.2-1.275-2.906-2.069-4.794-2.069-3.625 0-6.563 2.938-6.563 6.563 0 0.512 0.056 1.012 0.169 1.494-5.456-0.275-10.294-2.888-13.531-6.862-0.563 0.969-0.887 2.1-0.887 3.3 0 2.275 1.156 4.287 2.919 5.463-1.075-0.031-2.087-0.331-2.975-0.819 0 0.025 0 0.056 0 0.081 0 3.181 2.263 5.838 5.269 6.437-0.55 0.15-1.131 0.231-1.731 0.231-0.425 0-0.831-0.044-1.237-0.119 0.838 2.606 3.263 4.506 6.131 4.563-2.25 1.762-5.075 2.813-8.156 2.813-0.531 0-1.050-0.031-1.569-0.094 2.913 1.869 6.362 2.95 10.069 2.95 12.075 0 18.681-10.006 18.681-18.681 0-0.287-0.006-0.569-0.019-0.85 1.281-0.919 2.394-2.075 3.275-3.394z"></path>
</symbol>
</defs>
</svg>
